<?xml version="1.0" encoding="UTF-8"?>
<!DOCTYPE svg PUBLIC "-//W3C//DTD SVG 1.1//EN" "http://www.w3.org/Graphics/SVG/1.1/DTD/svg11.dtd">
<!-- Creator: CorelDRAW 2020 (64-Bit) -->
<svg xmlns="http://www.w3.org/2000/svg" xml:space="preserve" width="21.7187mm" height="24.4119mm" version="1.1" style="shape-rendering:geometricPrecision; text-rendering:geometricPrecision; image-rendering:optimizeQuality; fill-rule:evenodd; clip-rule:evenodd"
viewBox="0 0 6441 7239.7"
 xmlns:xlink="http://www.w3.org/1999/xlink"
 xmlns:xodm="http://www.corel.com/coreldraw/odm/2003">
 <defs>
  <style type="text/css">
   <![CDATA[
    .fil0 {fill:black;fill-rule:nonzero}
    .fil2 {fill:#00B5B5;fill-rule:nonzero}
    .fil1 {fill:#5FBFFF;fill-rule:nonzero}
   ]]>
  </style>
 </defs>
 <g id="Слой_x0020_1">
  <metadata id="CorelCorpID_0Corel-Layer"/>
  <g id="_898369552">
   <g>
    <path class="fil0" d="M2194.4 2097.3c57.3,-42.6 127,-65.7 198.4,-65.7 105.8,0 205.4,50.5 268,135.8l1940.4 3026.2c6.9,10.6 10.5,23.1 10.5,35.8 0,36.7 -29.7,66.4 -66.4,66.4 -19.1,0 -37.3,-8.3 -49.9,-22.7l-2363.8 -2708.4c-1.1,-1.2 -2.1,-2.5 -3.1,-3.8 -42.9,-57.3 -66.1,-127.1 -66.1,-198.7 0,-104.1 49,-202.3 132.1,-264.9l0 0z"/>
    <g>
     <path class="fil1" d="M2705.6 2237.2c417.2,-71.3 802.2,230.6 818.9,243.9 15.5,12.6 24.5,31.5 24.5,51.5 0,36.7 -29.7,66.4 -66.4,66.4 -14.7,0 -29.1,-4.9 -40.7,-14 -3.4,-2.7 -318.9,-248.9 -656.8,-223.8l-79.5 -124z"/>
     <path class="fil1" d="M2509.2 2452.2c-15.5,9.8 -30.6,20.3 -45.4,31.6 -210.9,150.6 -336.3,394 -336.3,653.3 0,53 5.4,106.2 15.7,158.2 4.1,22 106.6,540.3 659.9,556.7 179,-6.5 358,-35.8 529.8,-86.6 509.7,-123.1 1143.7,-276.1 1760.3,289.8 13.6,12.6 21.4,30.3 21.4,48.9 0,36.7 -29.7,66.4 -66.4,66.4 -16.6,0 -32.7,-6.3 -44.9,-17.5 -564.3,-518 -1135.4,-380.3 -1639.2,-258.6 -183.5,53 -374,83.6 -565,90.5 -662.3,-19.7 -785.4,-659.3 -785.6,-661.2 -12.6,-61.7 -19,-124.6 -19,-187.6 0,-300.4 144.9,-582.7 388.9,-757.9 9.5,-7.2 19.1,-14.1 28.8,-20.8 38.1,21.3 70.3,52 93.2,89.1l3.6 5.9z"/>
    </g>
    <g>
     <path class="fil2" d="M2428.6 2660.3c-30.1,-20.8 -37.6,-62 -16.8,-92 20.8,-30.1 62,-37.6 92,-16.8 17.5,12.1 33.5,19.8 46.3,22 2.5,0.4 2.6,2 2.9,2.4l0.9 -0.7c0.9,-2.7 -0.4,-13.4 -3.2,-29 -6,-32.7 -24.1,-72.2 -52.9,-110.6l-2.2 -2.9 -0.1 0.1 -0.9 -1.4c-28.1,-36.3 -59.5,-63.2 -88,-77.5 -12.8,-6.4 -22.1,-10.4 -26,-11.1 -12,32.8 -47.8,50.7 -81.5,40.4 -34.9,-10.7 -54.6,-47.8 -43.8,-82.7 3.8,-12.4 9.5,-24.1 16.8,-34.7 7.5,-10.9 16.4,-20.4 26.4,-28.1l0.1 0.2 0.9 -0.7c45.1,-33.8 105.3,-31.9 166.2,-1.5 45.5,22.8 93.5,63 134.1,115.5 2.2,2.5 4.3,5.1 6.2,7.9l-0.1 0.1c40.1,54.3 65.9,112.5 75.1,163.1 12.2,66.9 -2.7,125.2 -47.8,159.1l-0.2 0.1c-30,22.5 -66.6,29.2 -106.2,22.1 -31.6,-5.7 -65.4,-20.6 -98.2,-43.3z"/>
     <path class="fil2" d="M3228.3 3622.9c24.1,27.6 21.1,69.5 -6.5,93.6 -27.6,24.1 -69.5,21.1 -93.6,-6.5l-996.7 -1145.5c-2.4,-2.7 -4.5,-5.6 -6.4,-8.6 -19.7,-27.6 -34.9,-57.5 -45.2,-88.8 -11,-33.3 -16.7,-68.3 -16.7,-103.7 0,-91.4 37.1,-174.2 97,-234.1 59.9,-59.9 142.7,-97 234.1,-97 51.4,0 101.6,12.1 146.8,34.5 45.2,22.4 85.2,55 116.4,96 1.1,1.5 2.1,2.9 3.1,4.4l1940.4 3026.2c19.8,30.8 10.8,71.8 -20,91.5 -29,18.6 -67,11.7 -87.8,-14.8l-1085.4 -1240.3c-24.1,-27.5 -21.3,-69.2 6.2,-93.3 27.5,-24.1 69.3,-21.3 93.3,6.2l502.9 574.6 -1459.7 -2276.4c-18.5,-23.7 -41.9,-42.5 -68.1,-55.5 -26.9,-13.3 -57,-20.6 -88.2,-20.6 -54.8,0 -104.4,22.2 -140.2,58.1 -35.9,35.9 -58.1,85.5 -58.1,140.2 0,21.4 3.4,42.3 10,62.2 6.2,18.9 15.1,36.6 26.3,52.5l996.1 1144.7z"/>
    </g>
    <path class="fil0" d="M2190.4 5186.8c86.2,-92.1 237.8,-239.3 321.4,-328.7 -96.5,58.8 -279.2,223.7 -372.6,282.9 -129.2,-95.3 -251.8,-201.9 -364.4,-316.7 217.2,-48.1 422.3,-142.1 600.5,-275.3 -209.6,103.3 -436.9,168.7 -669.2,192.6 -83.5,-114.7 -159.7,-235.9 -227.3,-361.4 474.7,129.1 990.8,-61.1 1309.4,-392.9 82.4,47.6 188.2,105.5 274.5,149.2 51.3,25.7 90.1,71.5 107.2,126.5 115.9,309.6 48.3,582.6 -161.4,827.9 -87.7,102.6 -218.6,259.6 -334.2,329.2 -169.7,-58 -332.6,-136.7 -483.9,-233.2l0 -0.1z"/>
    <path class="fil0" d="M3234.7 3802.2l-172 -99.6c45.4,-79.2 89.4,-156.4 133.8,-233.3 321,-556 642,-1112 963.1,-1668 6.6,-11.4 12.9,-22.9 20.1,-33.8 17.9,-30.1 50.4,-48.5 85.4,-48.5 54.9,0 99.4,44.5 99.4,99.4 0,17.4 -4.6,34.5 -13.2,49.5 -53.8,96.3 -109.7,191.3 -164.9,286.9 -281.6,487.8 -563.2,975.6 -844.8,1463.4 -34.7,60.1 -69.6,120 -106.9,184.1z"/>
    <path class="fil0" d="M3152.4 4140.5l-339.8 -196.3c35.5,-60.9 67.8,-120.8 104.5,-177.8 11.1,-19.1 31.5,-30.9 53.6,-30.9 11.8,0 23.4,3.4 33.4,9.8 75.8,41.8 150.7,85.1 224.8,129.9 20.5,10.8 33.3,32 33.3,55.1 0,10.9 -2.9,21.6 -8.3,31 -31,60.3 -66.6,118.3 -101.5,179.2z"/>
    <g>
     <g>
      <path class="fil2" d="M2400.3 5066.8c-36.6,36.8 -73.4,73.8 -105.4,106.6 51.8,30.4 105.1,58.9 159.8,85.2 68.5,33 138.9,62.5 210.6,88.3 94.8,-66.8 201.5,-191.8 278.8,-282.5l14 -16.4c97.7,-114.2 162,-234 188.3,-360.3 25.9,-124.3 15,-256.5 -37.1,-397.6 -1,-2.3 -2,-4.8 -2.8,-7.3 -5.9,-19 -15.5,-36.4 -28.1,-51.2 -12,-14.1 -26.4,-25.9 -42.6,-34.5 -1,-0.5 -2,-0.9 -3.1,-1.5 -40.7,-20.6 -87.6,-45.4 -135.4,-71.4 -34.2,-18.6 -67.5,-37 -98.1,-54.3 -167.6,162.1 -381,288.2 -612.1,357.6 -185.9,55.8 -383.5,75 -578.6,47.1 11.2,18.6 22.5,37.1 34,55.4 30.6,48.7 62.1,95.9 94.4,141.5 99.1,-12.2 197.5,-32.4 294,-60.2 107.3,-30.9 211.6,-71 311.4,-119.9 28.7,-16.3 65.7,-9.1 85.9,18 21.9,29.4 15.9,70.9 -13.5,92.8 -92.3,69 -192.3,128.2 -297.8,176.5 -68.8,31.6 -139.9,58.4 -212.6,80.1 29.3,27.7 59.2,54.7 89.6,81.1 47.5,41.3 96.5,81.2 146.7,119.5 38.4,-28.1 85.6,-66 133.3,-104.5 73.9,-59.6 149.3,-120.4 203.2,-153.3l0.1 0.1c24.7,-15.1 57.4,-12.6 79.5,8.2 26.6,24.9 28,66.7 3.1,93.3 -45.5,48.6 -102.3,105.8 -159.6,163.5zm-273.1 139.5c-11.1,-2 -21.6,-6.9 -30.5,-14.2 -64.7,-47.8 -127.9,-98.6 -189.3,-152 -62.4,-54.2 -122.5,-110.8 -179.9,-169.3 -16.9,-17.2 -22.5,-41.3 -16.8,-63.1 -25,1.8 -48,-10.6 -60.6,-30.6 -42.3,-58.2 -82.1,-117.1 -119.5,-176.5 -39.1,-62.2 -75.9,-125.3 -110.2,-188.9 -17.3,-32.2 -5.2,-72.4 27,-89.7 15.5,-8.3 32.9,-9.8 48.7,-5.6l0 -0.1c216.6,58.9 442.9,47.4 653.2,-15.7 226.5,-68 434.1,-195.4 591.2,-359 21.6,-22.4 55.1,-26.3 80.9,-11.4 43.9,25.3 92.3,52.5 139.3,78.1 43.9,23.8 89.3,47.8 131.8,69.2 1.3,0.7 2.6,1.4 3.8,2.1 32.3,16.8 60.5,39.5 83.4,66.5 23.9,28.3 42.3,61.3 53.5,97.3l0.2 0.7c61.2,165.5 73.7,322 42.8,470.6 -31,148.9 -105.3,288.3 -217.3,419.4l-14 16.4c-90.2,105.8 -217.7,255.2 -336.2,326.5 -18.2,11 -39.7,12.2 -58.1,5 -86.2,-29.6 -170.9,-64.4 -253.3,-104.2 -82.8,-39.9 -163.7,-85.1 -242.3,-135.2 -13.8,-8.8 -23.2,-21.8 -27.6,-36.3z"/>
      <path class="fil2" d="M3201.5 3859.5l-229.1 -132.6 75.5 -131.8c16.5,-28.9 32.5,-56.9 91.3,-158.7 601,-1041 179.1,-310.5 481.5,-834.3l481.4 -833.7 -0.1 -0.1 3.9 -6.8c4.5,-7.9 9.1,-15.9 17,-28.1l-0 0c14.9,-25 35.9,-45.2 60.4,-59.1 24.7,-14.1 52.8,-21.8 81.8,-21.8 45.8,0 87.2,18.6 117.2,48.6 30,30 48.6,71.4 48.6,117.2 0,14.3 -2,28.6 -5.7,42.7 -3.5,13.1 -8.9,26.2 -16.1,38.9l0.1 0c-41.2,73.8 -80.7,141.9 -120.2,210 -28.9,49.7 -32.6,55.9 -45.1,77.6l-422.4 731.7c-896.6,1553.1 113.3,-196 -422.5,731.9l-0.1 -0.1c-42.6,73.9 -58.3,100.9 -73.9,127.6l-66.1 113.8 -57.2 -33.1zm-48.5 -181.1l57.7 33.4c34.8,-59.8 67.7,-116.5 73.6,-126.6l0 -0.3c817.4,-1415.7 -192.6,333.9 422.5,-731.4l467.5 -809.9c41.1,-70.8 82.2,-141.6 119.2,-207.9l0.5 -0.8c1.2,-2.1 2.3,-4.8 3.1,-8.1 0.7,-2.6 1,-5.4 1,-8.5 0,-9.1 -3.7,-17.4 -9.7,-23.3 -6,-6 -14.2,-9.7 -23.3,-9.7 -6.1,0 -11.7,1.5 -16.4,4.2 -4.9,2.8 -9.1,6.9 -12.2,11.9l-1.6 2.3c-2.6,4 -8.2,13.8 -13.9,23.7l-3.9 6.8 -0.2 0.2 -481.6 834c-623.5,1079.8 -201.5,348.8 -481.5,833.8l-100.8 176.2z"/>
      <path class="fil2" d="M3119.2 4197.8l-397.2 -229.5 33.4 -57.3c12.2,-20.9 21.4,-37.2 30.6,-53.3 24.8,-43.4 49.1,-86.1 75.2,-126.7 11.3,-18.7 27.1,-33.9 45.4,-44.5l0.3 0c19.4,-11.2 41.3,-17.3 63.8,-17.3 11.9,0 24,1.8 36.1,5.3 10.7,3.1 21,7.7 30.5,13.4 36.7,20.3 74.4,41.5 113,63.9 40.2,23.3 77.8,45.4 112.8,66.6 19.6,11.1 35.6,26.9 46.9,45.5 11.9,19.8 18.6,42.6 18.6,66.4 0,10.8 -1.5,21.9 -4.4,32.9 -3,11.1 -7.2,21.5 -12.6,31l-0.1 -0.1c-22.6,43.9 -46.8,85.1 -71.3,127.1 -4.7,8.1 -9.4,16.1 -30.1,52.2l-33 57.7 -57.7 -33.3zm-216.3 -277.9l225.5 130.3c23.4,-39.9 46.3,-79.3 66.3,-118.2 -39.1,-23.6 -76,-45.5 -110.8,-65.5 -35.8,-20.7 -73,-41.7 -111.7,-63l-0.1 -0c-24.6,38.2 -46.8,77 -69.3,116.5z"/>
     </g>
     <circle class="fil2" cx="3012.2" cy="5410.8" r="93.5"/>
     <circle class="fil2" cx="3227.4" cy="5141.1" r="78.6"/>
     <circle class="fil2" cx="3227.4" cy="5340.1" r="62.5"/>
    </g>
   </g>
   <path class="fil1" d="M69.9 1995.8l305 156.2 96 -187.5 -305 -156.2 68.2 -133.1 698.1 357.6 -68.2 133.1 -307.6 -157.6 -96 187.5 307.6 157.6 -69.9 136.5 -698.1 -357.6 69.9 -136.5zm677.2 -966.1c15.2,-15.9 33.2,-26.9 54.2,-32.9 20.9,-6 42.9,-7 65.8,-2.9 23,4 46.5,12.4 70.6,25.1 24.1,12.7 47.2,29.6 69.2,50.5l257.8 245.9c21.1,20.1 38.5,41.6 52.3,64.7 13.8,23 23.2,45.8 28.1,68.3 4.9,22.5 5.1,44.4 0.5,65.5 -4.5,21.2 -14.8,40.2 -30.9,57.1l-148.7 156c-15.6,16.4 -33.8,27.5 -54.5,33.2 -20.7,5.8 -42.6,6.7 -65.9,3 -23.2,-3.8 -46.6,-12.1 -70.3,-24.8 -23.7,-12.7 -46,-29.1 -67.1,-49.2l-257.9 -245.8c-22,-21 -40.1,-43.1 -54.1,-66.3 -14.1,-23.3 -23.5,-46.4 -28.4,-69.4 -4.9,-23 -5,-45 -0.2,-65.9 4.8,-20.9 14.9,-39.6 30.6,-56l148.7 -156zm261.1 554.7c10.8,10.3 22.3,19 34.6,26.3 12.3,7.3 24.5,12.6 36.4,16 12,3.4 23.3,4.2 34,2.3 10.7,-1.8 19.9,-6.8 27.5,-14.7l60.3 -63.2c7.6,-8 12.1,-17.3 13.4,-28.1 1.3,-10.8 0.1,-22 -3.6,-33.6 -3.7,-11.6 -9.5,-23.3 -17.3,-35.3 -7.9,-12 -17.4,-23.3 -28.6,-34l-257.8 -245.9c-11.7,-11.2 -23.8,-20.5 -36.4,-28 -12.5,-7.5 -24.8,-12.7 -36.8,-15.6 -12,-2.9 -23.2,-3.4 -33.7,-1.3 -10.5,2.1 -19.3,6.9 -26.4,14.4l-60.3 63.2c-7.6,8 -12,17.2 -13,27.8 -1.1,10.6 0,21.8 3.5,33.6 3.5,11.8 9.3,23.8 17.3,36 8.1,12.2 17.7,23.6 29,34.3l257.9 245.9zm291.6 -1007.6l308.6 481.4c8.4,13 17.7,24.6 27.9,34.5 10.2,10 20.7,17.9 31.3,23.7 10.7,5.8 21.3,9.2 31.9,10.1 10.6,0.9 20.5,-1.6 29.7,-7.5l70.3 -45c8.7,-5.6 14.9,-13.4 18.4,-23.4 3.6,-10 5,-21.1 4.1,-33.2 -0.8,-12.1 -3.7,-24.9 -8.5,-38.4 -4.8,-13.5 -11.4,-26.7 -19.8,-39.8l-308.6 -481.4 122.6 -78.6 308.6 481.3c16,25.1 28.1,50.4 36.1,76.1 7.9,25.6 11.7,50 11.1,73 -0.6,23 -5.7,44.2 -15.3,63.4 -9.6,19.2 -24.2,35.1 -43.8,47.7l-176.5 113.1c-19.6,12.6 -40.2,19.2 -61.6,19.9 -21.5,0.7 -42.8,-3.5 -64,-12.6 -21.2,-9.1 -41.6,-22.7 -61.3,-40.8 -19.7,-18.1 -37.6,-39.7 -53.6,-64.8l-308.6 -481.4 120.9 -77.5zm1194.3 -506.7l26.8 94.3 -245.6 69.8c-10.6,3 -19.1,8.5 -25.6,16.3 -6.5,7.9 -11.2,17.6 -13.9,29.2 -2.8,11.5 -3.7,24.1 -2.9,37.7 0.8,13.6 3.2,27.5 7.3,41.8 9.2,32.4 22.5,56.8 40,73.4 17.5,16.5 36.2,22 56.1,16.4l126.1 -35.8c25.5,-7.2 49.4,-8.3 71.7,-3.2 22.3,5.1 42.6,15.1 61,30.1 18.4,14.9 34.5,34.4 48.4,58.4 13.8,24 25.1,51.2 33.8,81.8 9.4,33 14.5,64.7 15.4,95 0.9,30.3 -2.2,58 -9.3,82.9 -7.1,24.9 -17.9,45.9 -32.5,63.2 -14.6,17.3 -32.8,29 -54.6,35.2l-311.9 88.5 -26.2 -92.4 251.2 -71.3c11.2,-3.2 20.2,-9.3 27.1,-18.3 6.9,-9 11.8,-20 14.9,-32.9 3,-13 3.9,-27.5 2.7,-43.7 -1.2,-16.1 -4.3,-32.9 -9.3,-50.4 -5.8,-20.6 -12.5,-37.5 -20,-50.8 -7.5,-13.3 -16.6,-23 -27.4,-29 -10.8,-6 -23.6,-9 -38.3,-8.8 -14.8,0.1 -32.7,3.2 -53.9,9.2l-81.3 23.1c-25.5,7.2 -49.7,8.6 -72.5,3.9 -22.8,-4.6 -43.6,-14.2 -62.2,-28.8 -18.6,-14.6 -34.9,-33.6 -49,-57.2 -14.1,-23.6 -25.6,-50.9 -34.4,-82.1 -8.5,-29.9 -13,-59 -13.7,-87.4 -0.7,-28.4 2.5,-54.2 9.3,-77.3 6.9,-23.1 17.6,-43 32,-59.5 14.5,-16.5 32.6,-27.9 54.4,-34.1l306.3 -87zm1006.6 -58.1l-2.5 98 -328 -8.3 -6.2 244.5 238.8 6 -2.4 96.1 -238.8 -6 -6.3 249.4 328 8.3 -2.4 96.1 -480.4 -12.1 19.8 -784.1 480.4 12.1zm546.5 95.1l-124.3 608.5 4.7 1.3 164.8 -385.1 87.8 24.9 -63.6 415.9 5.6 1.6 213.6 -585.2 133.5 37.9 -289.8 733.1 -152.2 -43.2 40.7 -324.5 -4.7 -1.3 -134 298 -153.1 -43.5 137.6 -776.3 133.5 37.9zm1232 577.4l-52.9 82.6 -138.1 -88.6 -318.5 496.9 138.1 88.6 -51.9 80.9 -405.3 -259.9 51.9 -80.9 139.7 89.6 318.5 -496.9 -139.7 -89.6 52.9 -82.5 405.3 259.8zm692.1 688.9l-74.1 64.2 -221.2 -255.3 -193.7 167.8 162.7 187.8 -72.6 62.9 -162.7 -187.8 -252.4 218.6 -100.4 -116 592.9 -513.5 321.6 371.3zm469.6 846.7l-89.4 40.4 -135.2 -299 -222.9 100.8 98.4 217.6 -87.5 39.6 -98.4 -217.6 -227.3 102.8 135.2 299 -87.6 39.6 -198 -437.8 714.7 -323.1 198 437.8z"/>
   <path class="fil1" d="M1764 6089l-52.9 82.6 -137.3 -88 -370.4 577.8 -125 -80.2 370.4 -577.8 -143.8 -92.2 52.9 -82.5 406.2 260.4zm673 263.5c21.2,6 39.3,16.9 54.3,32.6 15,15.7 26.2,34.7 33.3,56.9 7.1,22.2 10.7,46.9 10.7,74.2 0,27.3 -4.2,55.5 -12.5,84.8l-97.3 342.7c-7.9,28 -18.9,53.5 -32.8,76.5 -13.9,23 -29.7,41.8 -47.4,56.7 -17.7,14.8 -36.9,25.2 -57.7,31.1 -20.8,5.8 -42.5,5.6 -64.9,-0.8l-207.3 -58.9c-21.8,-6.2 -40,-17.1 -54.8,-32.7 -14.7,-15.6 -25.8,-34.6 -33.3,-56.9 -7.5,-22.3 -11.1,-46.9 -10.9,-73.7 0.2,-26.8 4.3,-54.3 12.3,-82.3l97.3 -342.7c8.3,-29.2 19.5,-55.5 33.5,-78.8 14,-23.3 30,-42.4 48.1,-57.5 18.1,-15.1 37.5,-25.4 58.2,-30.9 20.7,-5.5 42,-5.2 63.8,0.9l207.3 58.9zm-369.1 489.6c-4.1,14.3 -6.4,28.6 -7.1,42.9 -0.7,14.3 0.3,27.5 2.8,39.7 2.6,12.2 7.2,22.6 13.8,31.2 6.6,8.6 15.3,14.4 25.9,17.4l84 23.9c10.6,3 21,2.6 31.1,-1.3 10.2,-3.8 19.5,-10.1 28,-18.8 8.5,-8.7 16.3,-19.3 23.2,-31.8 6.9,-12.5 12.5,-26.2 16.7,-41.2l97.3 -342.7c4.4,-15.6 7,-30.6 7.8,-45.2 0.8,-14.6 -0.3,-27.8 -3.3,-39.8 -3,-12 -7.9,-22.1 -14.6,-30.4 -6.7,-8.3 -15.1,-13.9 -25,-16.7l-84 -23.9c-10.6,-3 -20.8,-2.6 -30.7,1.4 -9.9,3.9 -19.2,10.2 -28,18.8 -8.8,8.6 -16.8,19.3 -23.8,32.1 -7,12.8 -12.6,26.7 -16.8,41.6l-97.3 342.7zm1249.8 -386.6c22,0.6 42.3,6.6 60.7,18 18.5,11.5 34,27.1 46.4,46.8 12.4,19.8 22,42.8 28.8,69.2 6.8,26.4 9.8,54.8 9,85.2l-9 356.1c-0.7,29.1 -5,56.5 -12.8,82.2 -7.8,25.7 -18.4,47.9 -31.8,66.7 -13.4,18.7 -29.5,33.6 -48.2,44.4 -18.7,10.9 -39.7,16 -63,15.4l-215.4 -5.5c-22.7,-0.6 -43.1,-6.6 -61.2,-18.1 -18.1,-11.4 -33.6,-27.1 -46.4,-46.8 -12.8,-19.8 -22.4,-42.6 -28.8,-68.7 -6.5,-26 -9.3,-53.6 -8.6,-82.7l9 -356.2c0.8,-30.4 5,-58.6 12.8,-84.6 7.8,-26 18.5,-48.6 32.3,-67.7 13.8,-19.1 30,-33.9 48.7,-44.4 18.7,-10.5 39.4,-15.5 62,-14.9l215.5 5.5zm-235.7 566c-0.4,14.9 0.9,29.3 3.7,43.3 2.9,14 7.1,26.6 12.7,37.7 5.5,11.2 12.6,20 21.2,26.7 8.5,6.7 18.4,10.2 29.3,10.4l87.4 2.2c11,0.3 20.9,-2.7 29.8,-9 8.9,-6.3 16.4,-14.7 22.5,-25.2 6.1,-10.5 10.9,-22.7 14.5,-36.5 3.6,-13.8 5.6,-28.5 6,-44l9 -356.2c0.4,-16.2 -0.8,-31.4 -3.7,-45.7 -2.9,-14.3 -7.2,-26.9 -13.1,-37.7 -5.9,-10.9 -13.1,-19.5 -21.7,-25.8 -8.6,-6.3 -18.1,-9.7 -28.4,-9.9l-87.3 -2.2c-11,-0.3 -20.8,2.7 -29.4,9 -8.6,6.3 -16.1,14.7 -22.5,25.2 -6.4,10.5 -11.4,22.8 -15,37 -3.6,14.2 -5.6,29 -6,44.5l-9 356.1zm870 -662.6l188 662.1 334.3 -94.9 26.2 92.4 -479.1 136.1 -214.3 -754.5 144.8 -41.1zm1052.5 -498.8l52.9 82.5 -214.9 137.8c-9.3,6 -15.9,13.6 -19.8,23.1 -3.9,9.5 -5.6,20.1 -4.9,32 0.7,11.9 3.4,24.1 8.1,36.9 4.7,12.8 11.1,25.4 19.1,37.9 18.1,28.3 38,47.9 59.5,58.7 21.5,10.8 41,10.6 58.4,-0.6l110.4 -70.7c22.3,-14.3 44.9,-22.3 67.7,-23.8 22.8,-1.6 45.2,2.1 67.1,11.2 21.9,9 43,23 63.2,41.9 20.2,19 38.9,41.8 56,68.4 18.5,28.9 32.6,57.7 42.2,86.5 9.6,28.8 14.7,56.1 15.1,82 0.4,25.9 -3.9,49.1 -12.8,69.9 -9,20.8 -23,37.2 -42.1,49.5l-273 175 -51.9 -80.9 219.8 -140.9c9.8,-6.3 16.7,-14.7 20.6,-25.3 4,-10.6 5.5,-22.6 4.7,-35.9 -0.8,-13.3 -4.2,-27.5 -10,-42.6 -5.8,-15.1 -13.6,-30.3 -23.4,-45.5 -11.5,-18 -22.8,-32.3 -33.8,-42.9 -11,-10.6 -22.6,-17.2 -34.7,-19.9 -12.1,-2.6 -25.1,-1.7 -39.2,2.6 -14.1,4.4 -30.4,12.6 -48.9,24.4l-71.1 45.6c-22.3,14.3 -45.1,22.6 -68.3,24.8 -23.2,2.2 -45.8,-1 -67.8,-9.6 -22,-8.5 -43.2,-22.1 -63.5,-40.6 -20.3,-18.5 -39.2,-41.4 -56.7,-68.6 -16.8,-26.2 -29.6,-52.7 -38.4,-79.7 -8.8,-27 -13.3,-52.6 -13.4,-76.7 -0.1,-24.1 4.4,-46.2 13.4,-66.3 9,-20 23.1,-36.2 42.2,-48.4l268.1 -171.8z"/>
  </g>
 </g>
</svg>
